# xmcd
#
# Track frame offsets: 
#        150
#        19425
#        33467
#        44797
#        57932
#        70055
#        84489
#        103308
#        119965
#        130805
#        141047
#        153010
#        168814
#        181060
#        195808
#        208226
#        221672
#        243568
#        256371
#        268758
#
# Disc length: 3843 seconds
#
# Revision: 0
# Processed by: cddbd v1.5.2PL0 Copyright (c) Steve Scherf et al.
# Submitted via: ExactAudioCopy v1.0b3
#
DISCID=2c0f0114
DTITLE=Various Artist - Country Hits - Latest and Greatest [CD 3,3)
DYEAR=2015
DGENRE=Country
TTITLE0=Reba McEntire - The Night The Lights Went Out In Georgia
TTITLE1=Joe Nichols - Tequila Makes Her Clothes Fall Off
TTITLE2=John Michael Montgomery - Sold (The Grundy County Auction Ince
TTITLE2=dent)
TTITLE3=Dr. Hook - When You're In Love With A Beautiful Woman
TTITLE4=Charlie Rich - The Most Beautiful Girl
TTITLE5=The Bellamy Brothers - If I Said You Had A Beautiful Body Woul
TTITLE5=d You Hold It Against Me
TTITLE6=Jimmy Buffett - Margaritaville
TTITLE7=Rita Coolidge - I Don't Want To Talk About It
TTITLE8=Gram Parsons and Emmylou Harris - Brand New Heartache
TTITLE9=Kris Kristofferson - Help Me Make It Through The Night
TTITLE10=The MCcarters - Timeless And True Love
TTITLE11=Willie Nelson - Always On My Mind
TTITLE12=Patsy Cline - Crazy 
TTITLE13=Jeanne Pruett - Satin Sheets
TTITLE14=Don Williams - You're My Best Friend
TTITLE15=Faron Young - It's Four In The Morning
TTITLE16=Michael Martin Murphey - El Paso
TTITLE17=Jim Reeves - Have I Told You Lately That I Love You?
TTITLE18=Johnny Cash - I Walk The Line
TTITLE19=Norman Blake - You Are My Sunshine
EXTD=
EXTT0=
EXTT1=
EXTT2=
EXTT3=
EXTT4=
EXTT5=
EXTT6=
EXTT7=
EXTT8=
EXTT9=
EXTT10=
EXTT11=
EXTT12=
EXTT13=
EXTT14=
EXTT15=
EXTT16=
EXTT17=
EXTT18=
EXTT19=
PLAYORDER=
